# This file uses centimeters as units for non-parametric coordinates.

mtllib CatDoorBlock.mtl
g default
v -0.427560 13.268130 8.401910
v -0.427560 0.768130 8.401910
v -0.427560 -11.731870 8.401910
v -0.427560 13.268130 -8.419028
v -0.427560 0.768130 -8.419028
v -0.427560 -11.731870 -8.419028
v -0.427529 -11.731870 0.195336
v -0.427560 13.268130 0.195336
v 2.546775 13.268130 8.401910
v 2.546775 0.768130 8.401910
v 2.546775 13.268130 0.197144
v 2.546775 -11.731870 8.401910
v 2.546775 -11.731870 0.197144
v 2.546775 -11.731870 -8.419028
v 2.546775 0.768130 -8.419028
v 2.546775 13.268130 -8.419028
v 2.546775 12.268130 7.401910
v 2.546775 0.768130 7.401910
v 2.546775 12.268130 0.197144
v 2.546775 -10.731870 7.401910
v 2.546775 -10.731870 0.197144
v 2.546775 -10.731870 -7.419028
v 2.546775 0.768130 -7.419028
v 2.546775 12.268130 -7.419028
v 0.546775 12.268130 7.401910
v 0.546775 0.768130 7.401910
v 0.546775 0.768130 0.197144
v 0.546775 12.268130 0.197144
v 0.546775 -10.731870 7.401910
v 0.546775 -10.731870 0.197144
v 0.546775 -10.731870 -7.419028
v 0.546775 0.768130 -7.419028
v 0.546775 12.268130 -7.419028
v -0.427529 0.768130 0.195336
vt 0.503922 0.831927
vt 0.503922 0.665421
vt 0.608238 0.665421
vt 0.608238 0.831927
vt 0.503922 0.498916
vt 0.608238 0.498916
vt 0.718510 0.498916
vt 0.718510 0.665421
vt 0.718510 0.831927
vt 0.162402 1.340004
vt 0.162402 0.735525
vt 0.210761 0.735525
vt 0.210761 1.340004
vt 0.721156 0.197018
vt 0.299633 0.197018
vt 0.299633 0.145644
vt 0.721155 0.145644
vt 0.162402 0.131035
vt 0.210761 0.131035
vt 0.867646 0.203171
vt 0.700662 0.203171
vt 0.699838 0.182719
vt 0.867646 0.182719
vt 0.523617 0.203171
vt 0.523617 0.182719
vt 0.162402 1.340002
vt 0.162402 0.735514
vt 0.210761 0.735514
vt 0.210761 1.340002
vt 0.162402 0.131035
vt 0.210761 0.131035
vt 1.163817 0.197018
vt 1.163817 0.145644
vt 0.473875 0.869544
vt 0.473875 0.665423
vt 0.490204 0.665423
vt 0.490204 0.853213
vt 0.607857 0.869544
vt 0.607857 0.853213
vt 0.473875 0.461299
vt 0.490204 0.477629
vt 0.607857 0.461299
vt 0.607857 0.477629
vt 0.748557 0.461299
vt 0.732227 0.477629
vt 0.748557 0.665423
vt 0.732227 0.665423
vt 0.748557 0.869544
vt 0.732227 0.853213
vt 0.234941 0.179402
vt 0.234941 0.735520
vt 0.138222 0.735520
vt 0.138222 0.179402
vt 0.742295 0.119956
vt 1.112433 0.119956
vt 1.112433 0.222706
vt 0.742295 0.222706
vt 0.234941 1.291641
vt 0.138222 1.291641
vt 0.351008 0.119956
vt 0.721148 0.119956
vt 0.721148 0.222706
vt 0.351008 0.222706
vt 1.112438 0.119956
vt 1.112438 0.222706
vt 0.234940 0.179402
vt 0.234940 0.735510
vt 0.138223 0.735510
vt 0.138223 0.179402
vt 0.234940 1.291641
vt 0.138223 1.291641
vt 0.351014 0.119956
vt 0.351014 0.222706
vt 0.613520 0.524147
vt 0.613520 0.665421
vt 0.516161 0.665421
vt 0.516161 0.524147
vt 0.613520 0.806696
vt 0.516161 0.806696
vt 0.706271 0.524147
vt 0.706271 0.665421
vt 0.706271 0.806696
vn 1.000000 0.000000 0.000000
vn 1.000000 0.000000 0.000000
vn 1.000000 0.000000 0.000000
vn 1.000000 0.000000 0.000000
vn 1.000000 0.000000 0.000000
vn 1.000000 0.000000 0.000000
vn 1.000000 0.000000 0.000000
vn 1.000000 0.000000 0.000000
vn 1.000000 0.000000 0.000000
vn 0.000000 0.000000 1.000000
vn 0.000000 0.000000 1.000000
vn 0.000000 0.000000 1.000000
vn 0.000000 0.000000 1.000000
vn 0.000000 1.000000 0.000000
vn 0.000000 1.000000 0.000000
vn 0.000000 1.000000 0.000000
vn 0.000000 1.000000 0.000000
vn 0.000000 0.000000 1.000000
vn 0.000000 0.000000 1.000000
vn 0.000000 -1.000000 0.000000
vn 0.000000 -1.000000 0.000000
vn 0.000000 -1.000000 0.000000
vn 0.000000 -1.000000 0.000000
vn 0.000000 -1.000000 0.000000
vn 0.000000 -1.000000 0.000000
vn 0.000000 0.000000 -1.000000
vn 0.000000 0.000000 -1.000000
vn 0.000000 0.000000 -1.000000
vn 0.000000 0.000000 -1.000000
vn 0.000000 0.000000 -1.000000
vn 0.000000 0.000000 -1.000000
vn 0.000000 1.000000 0.000000
vn 0.000000 1.000000 0.000000
vn 1.000000 0.000012 0.000000
vn 1.000000 0.000000 0.000000
vn 1.000000 0.000000 0.000000
vn 1.000000 0.000012 0.000000
vn 1.000000 0.000008 0.000000
vn 1.000000 0.000008 0.000000
vn 1.000000 -0.000006 0.000000
vn 1.000000 -0.000006 0.000000
vn 1.000000 -0.000008 0.000000
vn 1.000000 -0.000008 0.000000
vn 1.000000 0.000000 0.000000
vn 1.000000 0.000000 0.000000
vn 1.000000 0.000000 0.000000
vn 1.000000 0.000000 0.000000
vn 1.000000 -0.000006 0.000000
vn 1.000000 -0.000006 0.000000
vn 0.000000 0.000000 -1.000000
vn 0.000000 0.000000 -1.000000
vn 0.000000 0.000000 -1.000000
vn 0.000000 0.000000 -1.000000
vn 0.000000 -1.000000 0.000000
vn 0.000000 -1.000000 0.000000
vn 0.000000 -1.000000 0.000000
vn 0.000000 -1.000000 0.000000
vn 0.000000 0.000000 -1.000000
vn 0.000000 0.000000 -1.000000
vn 0.000000 1.000000 0.000000
vn 0.000000 1.000000 0.000000
vn 0.000000 1.000000 0.000000
vn 0.000000 1.000000 0.000000
vn 0.000000 1.000000 0.000000
vn 0.000000 1.000000 0.000000
vn 0.000000 0.000000 1.000000
vn 0.000000 0.000000 1.000000
vn 0.000000 0.000000 1.000000
vn 0.000000 0.000000 1.000000
vn 0.000000 0.000000 1.000000
vn 0.000000 0.000000 1.000000
vn 0.000000 -1.000000 0.000000
vn 0.000000 -1.000000 0.000000
vn -1.000000 0.000000 0.000000
vn -1.000000 0.000000 0.000000
vn -1.000000 0.000000 0.000004
vn -1.000000 0.000000 0.000004
vn -1.000000 -0.000002 0.000000
vn -1.000000 -0.000002 0.000000
vn -1.000000 -0.000002 0.000002
vn -1.000000 -0.000002 0.000002
vn -1.000000 0.000000 -0.000004
vn -1.000000 0.000000 -0.000004
vn -1.000000 -0.000002 -0.000002
vn -1.000000 -0.000002 -0.000002
s 1
g polySurface37 polySurface33 polySurface32 polySurface30 polySurface19 polySurface17 polySurface6 polySurface4 polySurface2 pCube7
usemtl lambert3SG
f 25/1/1 26/2/2 27/3/3 28/4/4
f 26/2/2 29/5/5 30/6/6 27/3/3
f 27/3/3 30/6/6 31/7/7 32/8/8
f 28/4/4 27/3/3 32/8/8 33/9/9
s 2
usemtl lambert2SG
f 1/10/10 2/11/11 10/12/12 9/13/13
s 3
f 8/14/14 1/15/15 9/16/16 11/17/17
s 2
f 2/11/11 3/18/18 12/19/19 10/12/12
s 4
f 3/20/20 7/21/21 13/22/22 12/23/23
f 7/21/21 6/24/24 14/25/25 13/22/22
s 5
f 6/26/26 5/27/27 15/28/28 14/29/29
f 5/27/27 4/30/30 16/31/31 15/28/28
s 3
f 4/32/32 8/14/14 11/17/17 16/33/33
s 6
f 9/34/34 10/35/35 18/36/36 17/37/37
f 11/38/38 9/34/34 17/37/37 19/39/39
f 10/35/35 12/40/40 20/41/41 18/36/36
f 12/40/40 13/42/42 21/43/43 20/41/41
f 13/42/42 14/44/44 22/45/45 21/43/43
f 14/44/44 15/46/46 23/47/47 22/45/45
f 15/46/46 16/48/48 24/49/49 23/47/47
f 16/48/48 11/38/38 19/39/39 24/49/49
s 7
f 17/50/50 18/51/51 26/52/52 25/53/53
s 8
f 19/54/54 17/55/55 25/56/56 28/57/57
s 7
f 18/51/51 20/58/58 29/59/59 26/52/52
s 9
f 20/60/60 21/61/61 30/62/62 29/63/63
f 21/61/61 22/64/64 31/65/65 30/62/62
s 10
f 22/66/66 23/67/67 32/68/68 31/69/69
f 23/67/67 24/70/70 33/71/71 32/68/68
s 8
f 24/72/72 19/54/54 28/57/57 33/73/73
s 11
f 7/74/74 34/75/75 5/76/76 6/77/77
s 12
f 34/75/78 8/78/79 4/79/80 5/76/81
s 11
f 3/80/82 2/81/83 34/75/75 7/74/74
s 12
f 2/81/84 1/82/85 8/78/79 34/75/78
