# This file uses centimeters as units for non-parametric coordinates.

mtllib SpireTowerBlock.mtl
g default
v 9.286637 44.620611 9.595949
v 9.286637 32.120611 9.595949
v 9.286637 19.620611 9.595949
v 9.286637 7.120611 9.595949
v 9.286637 -5.379389 9.595949
v -9.477714 44.620611 9.378481
v -9.477714 32.120611 9.378481
v -9.477714 19.620611 9.378481
v -9.477714 7.120611 9.378481
v -9.477714 -5.379389 9.378481
v 9.286637 44.620611 -8.575926
v -0.027450 44.620611 -8.575926
v 9.286637 32.120611 -8.575926
v -0.067237 32.120611 -8.575926
v 9.286637 19.620611 -8.575926
v -0.067237 19.620611 -8.575926
v 9.286637 7.120611 -8.575926
v -0.067237 7.120611 -8.575926
v 9.286637 -5.379389 -8.575926
v -0.067237 -5.379389 -8.575926
v -9.477714 44.620611 -8.575926
v -9.477714 32.120611 -8.575926
v -9.477714 19.620611 -8.575926
v -9.477714 7.120611 -8.575926
v -9.477714 -5.379389 -8.575926
v 9.286637 42.845114 9.595949
v 9.286637 42.845114 -8.575926
v -0.067237 42.845114 -8.575926
v -9.477714 42.845114 -8.575926
v -9.477714 42.845114 9.378481
v 10.286635 44.620611 -9.575926
v 10.286635 42.845114 -9.575926
v -0.067237 42.845114 -9.575926
v -0.067237 44.620611 -9.575926
v -10.477714 42.845114 -9.575926
v -10.477714 44.620611 -9.575926
v 10.286635 44.620611 9.595949
v 10.286635 42.845114 9.595949
v -10.477714 44.620611 9.378481
v -10.477714 42.845114 9.378481
v 9.286637 25.736712 9.595949
v 9.286637 25.736712 -8.575926
v -0.067237 25.736712 -8.575926
v -9.477714 25.736712 -8.575926
v -9.477714 25.736712 9.378481
v -9.477714 44.620611 -0.001463
v -10.477714 44.620611 -0.523863
v -10.477714 42.845114 -0.523863
v -9.477714 42.845114 -0.001463
v -9.477714 32.120611 -0.001463
v -9.477714 25.736712 -0.001463
v -9.477714 19.620611 -0.001463
v -9.477714 7.120611 -0.001463
v -9.477714 -5.379389 -0.001463
v 9.286637 -5.379389 0.102419
v 9.286637 7.120611 0.102419
v 9.286637 19.620611 0.102419
v 9.286637 25.736712 0.102419
v 9.286637 32.120611 0.102419
v 9.286637 42.845114 0.102419
v 10.286635 42.845114 -0.419981
v 10.286635 44.620611 -0.419981
v 9.286637 44.620611 0.102419
v -9.477714 -15.679834 9.378481
v -0.048759 -15.679834 9.433229
v 9.286637 -15.679834 9.595949
v -0.067237 -15.679827 -0.001463
v 9.286637 -15.679834 0.102419
v -9.477714 -15.679834 -0.001463
v -9.477714 -15.679834 -8.575926
v -0.067237 -15.679834 -8.575926
v 9.286637 -15.679834 -8.575926
v -0.045062 -5.379389 9.487795
v -0.063018 7.120611 9.487612
v -0.080977 19.620611 9.487368
v -0.080264 25.736715 9.487398
v -0.079532 32.120611 9.487398
v -0.042655 42.845114 9.487795
v -0.072944 44.620611 9.487429
v -0.039603 44.620611 0.050783
v 9.308637 44.620611 9.585695
v 9.346589 42.845114 9.586122
v -9.424907 44.620611 9.389498
v -9.477721 42.845114 9.388948
vt 0.471771 0.935825
vt 0.471771 0.956274
vt 0.356414 0.956274
vt 0.356414 0.935825
vt 0.250962 0.956274
vt 0.250962 0.935825
vt 0.224367 0.552370
vt 0.224367 0.478844
vt 0.333708 0.478844
vt 0.333708 0.552370
vt 0.224367 0.408403
vt 0.333708 0.408403
vt 0.433660 0.478844
vt 0.433660 0.552370
vt 0.333708 0.675888
vt 0.224367 0.675888
vt 0.224367 0.264436
vt 0.333708 0.264436
vt 0.433660 0.408403
vt 0.433660 0.675888
vt 0.224367 0.120468
vt 0.333708 0.120468
vt 0.433660 0.264436
vt 0.224367 0.001834
vt 0.333708 0.001834
vt 0.433660 0.120468
vt 0.433660 0.001834
vt 0.252214 0.956274
vt 0.252214 0.935825
vt 0.366263 0.935825
vt 0.366263 0.956274
vt 0.470519 0.935825
vt 0.470519 0.956274
vt 0.647489 0.478844
vt 0.647489 0.552370
vt 0.539456 0.552370
vt 0.539456 0.478844
vt 0.647489 0.675888
vt 0.539456 0.675888
vt 0.440701 0.552370
vt 0.440701 0.478844
vt 0.647489 0.408403
vt 0.539456 0.408403
vt 0.440701 0.675888
vt 0.440701 0.408403
vt 0.647489 0.264436
vt 0.539456 0.264436
vt 0.440701 0.264436
vt 0.647489 0.120468
vt 0.539456 0.120468
vt 0.440701 0.120468
vt 0.539456 0.001834
vt 0.647489 0.001834
vt 0.440701 0.001834
vt 0.235763 0.683292
vt 0.343283 0.685166
vt 0.343496 0.793828
vt 0.235763 0.792632
vt 0.451880 0.685796
vt 0.451880 0.793828
vt 0.343496 0.892584
vt 0.235763 0.892584
vt 0.451880 0.892584
vt 0.788716 0.691397
vt 0.788716 0.799129
vt 0.777199 0.799129
vt 0.777199 0.679880
vt 0.788716 0.907513
vt 0.777199 0.919031
vt 0.882651 0.679880
vt 0.888668 0.691397
vt 0.887471 0.907513
vt 0.881455 0.919031
vt 0.998008 0.691397
vt 0.998008 0.679880
vt 0.995503 0.907513
vt 0.995503 0.919031
vt 0.651243 0.700568
vt 0.543969 0.700568
vt 0.532452 0.689050
vt 0.651702 0.689050
vt 0.543970 0.800519
vt 0.651383 0.799925
vt 0.532452 0.794503
vt 0.760086 0.700568
vt 0.771603 0.689050
vt 0.760086 0.799323
vt 0.543969 0.909860
vt 0.651767 0.908610
vt 0.532452 0.909860
vt 0.771603 0.793306
vt 0.760086 0.907355
vt 0.771603 0.907355
vt 0.480942 0.935825
vt 0.480942 0.956274
vt 0.361692 0.956274
vt 0.361692 0.935825
vt 0.241791 0.956274
vt 0.241791 0.935825
vt 0.218108 0.125353
vt 0.218108 0.198878
vt 0.110376 0.198878
vt 0.110376 0.125353
vt 0.218108 0.269320
vt 0.110376 0.269320
vt 0.001992 0.198878
vt 0.001992 0.125353
vt 0.110376 0.001834
vt 0.218108 0.001834
vt 0.218108 0.413287
vt 0.110376 0.413287
vt 0.001992 0.269320
vt 0.001992 0.001834
vt 0.218108 0.557254
vt 0.110376 0.557254
vt 0.001992 0.413287
vt 0.218108 0.675888
vt 0.110376 0.675888
vt 0.001992 0.557254
vt 0.001992 0.675888
vt 0.655086 0.120468
vt 0.655086 0.001834
vt 0.763683 0.001834
vt 0.763725 0.120468
vt 0.871202 0.001834
vt 0.871202 0.120468
vt 0.763518 0.264436
vt 0.655086 0.264436
vt 0.871202 0.264436
vt 0.763312 0.408403
vt 0.655086 0.408403
vt 0.871202 0.408403
vt 0.763320 0.478844
vt 0.655086 0.478844
vt 0.871202 0.478844
vt 0.763328 0.552370
vt 0.655086 0.552370
vt 0.871202 0.552370
vt 0.763753 0.675888
vt 0.655086 0.675888
vt 0.871202 0.675888
vt 0.360757 0.956274
vt 0.361106 0.935825
vt 0.468816 0.935825
vt 0.469424 0.956274
vt 0.252618 0.956274
vt 0.253055 0.935825
vt 0.480942 0.935825
vt 0.480942 0.956274
vt 0.241791 0.956274
vt 0.241791 0.935825
vn 0.000000 0.000000 -1.000000
vn 0.000000 0.000000 -1.000000
vn 0.000000 0.000000 -1.000000
vn 0.000000 0.000000 -1.000000
vn 0.000000 0.000000 -1.000000
vn 0.000000 0.000000 -1.000000
vn 0.000000 0.000000 -1.000000
vn 0.000000 0.000000 -1.000000
vn 0.000000 0.000000 -1.000000
vn 0.000000 0.000000 -1.000000
vn 0.000000 0.000000 -1.000000
vn 0.000000 0.000000 -1.000000
vn 0.000000 0.000000 -1.000000
vn 0.000000 0.000000 -1.000000
vn 0.000000 0.000000 -1.000000
vn 0.000000 0.000000 -1.000000
vn 0.000000 0.000000 -1.000000
vn 0.000000 0.000000 -1.000000
vn 0.000000 0.000000 -1.000000
vn 0.000000 0.000000 -1.000000
vn 0.000000 0.000000 -1.000000
vn 1.000000 0.000000 0.000000
vn 1.000000 0.000000 0.000000
vn 1.000000 0.000000 0.000000
vn 1.000000 0.000000 0.000000
vn 1.000000 0.000000 0.000000
vn 1.000000 0.000000 0.000000
vn 1.000000 0.000000 0.000000
vn 1.000000 0.000000 0.000000
vn 1.000000 0.000000 0.000000
vn 1.000000 0.000000 0.000000
vn 1.000000 0.000000 0.000000
vn 1.000000 0.000000 0.000000
vn 1.000000 0.000000 0.000000
vn 1.000000 0.000000 0.000000
vn 1.000000 0.000000 0.000000
vn 1.000000 0.000000 0.000000
vn -0.000000 -1.000000 0.000000
vn -0.000000 -1.000000 0.000000
vn -0.000000 -1.000000 0.000000
vn -0.000000 -1.000000 0.000000
vn -1.000000 0.000000 0.000000
vn -1.000000 0.000000 0.000000
vn -1.000000 0.000000 0.000000
vn -1.000000 0.000000 0.000000
vn -1.000000 0.000000 0.000000
vn -1.000000 0.000000 0.000000
vn -1.000000 0.000000 0.000000
vn -1.000000 0.000000 0.000000
vn -1.000000 0.000000 0.000000
vn -1.000000 0.000000 0.000000
vn -1.000000 0.000000 0.000000
vn -1.000000 0.000000 0.000000
vn 0.000000 -1.000000 -0.000000
vn 0.000000 -1.000000 -0.000000
vn 0.000000 -1.000000 -0.000000
vn 0.000000 -1.000000 -0.000000
vn -1.000000 0.000000 0.000000
vn -1.000000 0.000000 0.000000
vn -1.000000 0.000000 0.000000
vn -1.000000 0.000000 0.000000
vn 1.000000 0.000000 0.000000
vn 1.000000 0.000000 0.000000
vn 1.000000 0.000000 0.000000
vn 1.000000 0.000000 0.000000
vn 0.000000 0.000000 -1.000000
vn 0.000000 0.000000 -1.000000
vn 0.000000 0.000000 -1.000000
vn -1.000000 0.000000 0.000000
vn -1.000000 0.000000 0.000000
vn -1.000000 0.000000 0.000000
vn -1.000000 0.000000 0.000000
vn 0.000000 -1.000000 -0.000001
vn 0.000000 -1.000000 -0.000000
vn 0.000000 -1.000000 -0.000000
vn 0.000000 -1.000000 -0.000001
vn 0.000000 1.000000 -0.000000
vn 0.000000 1.000000 -0.000000
vn 0.000000 1.000000 -0.000000
vn 0.000000 1.000000 -0.000000
vn 0.000000 -1.000000 0.000000
vn 0.000000 -1.000000 0.000000
vn 0.000000 1.000000 0.000000
vn 0.000000 1.000000 0.000000
vn 0.000000 -1.000000 0.000000
vn 0.000000 -1.000000 0.000000
vn 0.000000 -1.000000 0.000000
vn 0.000000 -1.000000 0.000000
vn 0.000000 1.000000 0.000000
vn 0.000000 1.000000 0.000000
vn 0.000000 1.000000 0.000000
vn 0.000000 1.000000 0.000000
vn 0.000000 1.000000 0.000000
vn 0.000000 1.000000 0.000000
vn 0.000000 1.000000 0.000000
vn 0.000000 1.000000 0.000000
vn 0.000000 -1.000000 0.000000
vn 0.000000 -1.000000 0.000000
vn 0.000000 -1.000000 0.000000
vn 0.000000 -1.000000 0.000000
vn 1.000000 0.000000 0.000000
vn 1.000000 0.000000 0.000000
vn -1.000000 0.000000 0.000000
vn -1.000000 0.000000 0.000000
vn -1.000000 0.000000 0.000000
vn -1.000000 0.000000 0.000000
vn -1.000000 0.000000 0.000000
vn -1.000000 0.000000 0.000000
vn -1.000000 0.000000 0.000000
vn -1.000000 0.000000 0.000000
vn -1.000000 0.000000 0.000000
vn -1.000000 0.000000 0.000000
vn -1.000000 0.000000 0.000000
vn -1.000000 0.000000 0.000000
vn -1.000000 0.000000 0.000000
vn 0.000000 -1.000000 0.000000
vn 0.000000 -1.000000 0.000000
vn -0.000000 -1.000000 0.000000
vn -0.000000 -1.000000 0.000000
vn 1.000000 0.000000 0.000000
vn 1.000000 0.000000 0.000000
vn 1.000000 0.000000 0.000000
vn 1.000000 0.000000 0.000000
vn 1.000000 0.000000 0.000000
vn 1.000000 0.000000 0.000000
vn 1.000000 0.000000 0.000000
vn 1.000000 0.000000 0.000000
vn 1.000000 0.000000 0.000000
vn 1.000000 0.000000 0.000000
vn 1.000000 0.000000 0.000000
vn 1.000000 0.000000 0.000000
vn 1.000000 0.000000 0.000000
vn -1.000000 0.000000 0.000000
vn -1.000000 0.000000 0.000000
vn -1.000000 0.000000 0.000000
vn 0.000000 0.000000 -1.000000
vn 0.000000 0.000000 -1.000000
vn 0.000000 0.000000 -1.000000
vn 1.000000 0.000000 0.000000
vn -0.008698 -0.002647 0.999959
vn -0.008698 -0.002647 0.999959
vn -0.011588 -0.002646 0.999929
vn -0.011589 -0.002646 0.999929
vn -0.011589 -0.000001 0.999933
vn -0.011589 -0.000001 0.999933
vn -0.011589 -0.000001 0.999933
vn -0.011589 -0.000001 0.999933
vn -0.011589 0.000001 0.999933
vn -0.011589 0.000001 0.999933
vn -0.011590 0.000001 0.999933
vn -0.011590 0.000001 0.999933
vn -0.011589 -0.000002 0.999933
vn -0.011589 -0.000002 0.999933
vn -0.011587 -0.000002 0.999933
vn -0.011587 -0.000002 0.999933
vn -0.011589 0.000001 0.999933
vn -0.011589 0.000001 0.999933
vn -0.011589 0.000001 0.999933
vn -0.011589 0.000001 0.999933
vn -0.011589 0.000001 0.999933
vn -0.011589 0.000001 0.999933
vn -0.011589 0.000001 0.999933
vn -0.011589 0.000001 0.999933
vn -0.010472 0.000019 0.999945
vn -0.010472 0.000018 0.999945
vn -0.010474 0.000014 0.999945
vn -0.010474 0.000013 0.999945
vn 0.000000 1.000000 0.000000
vn 0.000000 1.000000 0.000000
vn 0.000000 1.000000 0.000000
vn 0.000000 1.000000 0.000000
vn 0.000000 1.000000 0.000000
vn 0.000000 1.000000 0.000000
vn 0.000000 1.000000 0.000000
vn 0.000000 1.000000 0.000000
vn -0.014509 -0.002646 0.999891
vn -0.014509 -0.002646 0.999891
vn -0.011590 -0.000001 0.999933
vn -0.011590 -0.000001 0.999933
vn -0.011588 0.000001 0.999933
vn -0.011588 0.000001 0.999933
vn -0.011590 -0.000002 0.999933
vn -0.011590 -0.000002 0.999933
vn -0.011589 0.000001 0.999933
vn -0.011589 0.000001 0.999933
vn -0.011589 0.000001 0.999933
vn -0.011589 0.000001 0.999933
vn -0.010466 0.000008 0.999945
vn -0.010466 0.000008 0.999945
vn -0.010471 0.000021 0.999945
vn -0.010471 0.000021 0.999945
vn 0.000000 1.000000 0.000000
vn 0.000000 1.000000 0.000000
vn 0.000000 1.000000 0.000000
vn 0.000000 1.000000 0.000000
vn -0.010482 0.000001 0.999945
vn -0.010482 0.000001 0.999945
s 1
g polySurface1 pCube7
usemtl lambert4SG
f 31/94/1 32/95/2 33/96/3 34/97/4
s 2
usemtl lambert2SG
f 13/100/5 42/101/6 43/102/7 14/103/8
f 15/104/9 17/110/10 18/111/11 16/105/12
f 17/110/10 19/114/13 20/115/14 18/111/11
s 1
usemtl lambert4SG
f 34/97/4 33/96/3 35/98/15 36/99/16
s 2
usemtl lambert2SG
f 14/103/8 43/102/7 44/106/17 22/107/18
f 16/105/12 18/111/11 24/116/19 23/112/20
f 18/111/11 20/115/14 25/119/21 24/116/19
s 4
usemtl lambert4SG
f 37/1/22 38/2/23 61/3/24 62/4/25
s 5
usemtl lambert2SG
f 2/7/26 41/8/27 58/9/28 59/10/29
s 6
f 3/11/30 4/17/31 56/18/32 57/12/33
s 7
f 4/17/34 5/21/35 55/22/36 56/18/37
s 8
f 66/55/38 65/56/39 67/57/40 68/58/41
s 9
usemtl lambert4SG
f 40/28/42 39/29/43 47/30/44 48/31/45
s 10
usemtl lambert2SG
f 45/34/46 7/35/47 50/36/48 51/37/49
s 11
f 9/46/50 8/42/51 52/43/52 53/47/53
s 12
f 65/56/54 64/59/55 69/60/56 67/57/57
s 13
f 10/49/58 9/46/59 53/47/60 54/50/61
s 14
f 60/15/62 26/16/63 2/7/64 59/10/65
s 2
f 28/108/66 27/109/67 13/100/5 14/103/8
f 29/113/68 28/108/66 14/103/8 22/107/18
s 15
f 7/35/69 30/38/70 49/39/71 50/36/72
s 16
usemtl lambert4SG
f 27/64/73 28/65/74 33/66/75 32/67/76
s 17
f 12/78/77 11/79/78 31/80/79 34/81/80
s 16
f 28/65/74 29/68/81 35/69/82 33/66/75
s 17
f 21/85/83 12/78/77 34/81/80 36/86/84
s 16
f 26/74/85 60/71/86 61/70/87 38/75/88
s 17
f 63/82/89 1/88/90 37/90/91 62/84/92
f 6/92/93 46/87/94 47/91/95 39/93/96
s 16
f 49/72/97 30/76/98 40/77/99 48/73/100
s 5
usemtl lambert2SG
f 58/9/28 41/8/27 3/11/101 57/12/102
s 2
f 43/102/7 42/101/6 15/104/9 16/105/12
f 44/106/17 43/102/7 16/105/12 23/112/20
s 10
f 8/42/103 45/34/46 51/37/49 52/43/104
s 17
usemtl lambert4SG
f 47/91/95 46/87/94 21/85/83 36/86/84
s 9
f 48/31/45 47/30/44 36/32/105 35/33/106
s 16
f 29/68/81 49/72/97 48/73/100 35/69/82
s 15
usemtl lambert2SG
f 50/36/72 49/39/71 29/44/107 22/40/108
s 10
f 51/37/49 50/36/48 22/40/109 44/41/110
f 52/43/104 51/37/49 44/41/110 23/45/111
s 11
f 53/47/53 52/43/52 23/45/112 24/48/113
s 13
f 54/50/61 53/47/60 24/48/114 25/51/115
s 12
f 67/57/57 69/60/56 70/63/116 71/61/117
s 8
f 68/58/41 67/57/40 71/61/118 72/62/119
s 7
f 56/18/37 55/22/36 19/26/120 17/23/121
s 6
f 57/12/33 56/18/32 17/23/122 15/19/123
s 5
f 42/13/124 58/9/28 57/12/102 15/19/125
f 59/10/29 58/9/28 42/13/124 13/14/126
s 14
f 27/20/127 60/15/62 59/10/65 13/14/128
s 16
usemtl lambert4SG
f 61/70/87 60/71/86 27/64/73 32/67/76
s 4
f 62/4/25 61/3/24 32/5/129 31/6/130
s 17
f 11/79/78 63/82/89 62/84/92 31/80/79
s 7
usemtl lambert2SG
f 55/22/36 5/21/35 66/24/131 68/25/132
s 13
f 10/49/58 54/50/61 69/52/133 64/53/134
f 54/50/61 25/51/115 70/54/135 69/52/133
s 2
f 25/119/21 20/115/14 71/118/136 70/120/137
f 20/115/14 19/114/13 72/117/138 71/118/136
s 7
f 19/26/120 55/22/36 68/25/132 72/27/139
s 18
f 10/121/140 64/122/141 65/123/142 73/124/143
s 19
f 73/124/144 74/127/145 9/128/146 10/121/147
s 20
f 74/127/148 75/130/149 8/131/150 9/128/151
s 21
f 75/130/152 76/133/153 45/134/154 8/131/155
s 22
f 76/133/156 77/136/157 7/137/158 45/134/159
s 23
f 77/136/160 78/139/161 30/140/162 7/137/163
s 24
usemtl lambert4SG
f 78/142/164 79/143/165 83/144/166 84/145/167
s 25
f 1/88/168 63/82/169 80/83/170 79/89/171
s 26
f 63/82/172 11/79/173 12/78/174 80/83/175
s 18
usemtl lambert2SG
f 73/124/143 65/123/142 66/125/176 5/126/177
s 19
f 5/126/178 4/129/179 74/127/145 73/124/144
s 20
f 4/129/180 3/132/181 75/130/149 74/127/148
s 21
f 3/132/182 41/135/183 76/133/153 75/130/152
s 22
f 41/135/184 2/138/185 77/136/157 76/133/156
s 23
f 2/138/186 26/141/187 78/139/161 77/136/160
s 24
usemtl lambert4SG
f 38/150/188 37/151/189 81/147/190 82/146/191
s 26
f 80/83/175 12/78/174 21/85/192 46/87/193
s 25
f 79/89/171 80/83/170 46/87/194 6/92/195
s 24
f 82/146/191 81/147/190 79/143/165 78/142/164
f 84/145/167 83/144/166 39/148/196 40/149/197
