# This file uses centimeters as units for non-parametric coordinates.

mtllib StairsBlock.mtl
g default
v -20.000000 10.621439 5.689444
v -20.000000 0.255144 5.689444
v -10.000000 10.621439 5.689444
v -10.000000 0.255144 5.689444
v -0.000000 10.621439 5.689444
v 0.000000 0.255144 5.689444
v 10.000000 10.621439 5.689444
v 10.000000 0.255144 5.689444
v 20.000000 10.621439 5.689444
v 20.000000 0.255144 5.689444
v 20.000000 5.685953 0.954856
v 20.000000 0.255144 -4.310556
v 10.000000 5.681390 0.969001
v 10.000000 0.255144 -4.310556
v -0.000000 5.681390 0.969001
v 0.000000 0.255144 -4.310556
v -10.000000 5.681390 0.969001
v -10.000000 0.255144 -4.310556
v -20.000000 5.685953 0.954856
v -20.000000 0.255144 -4.310556
v 10.000000 8.222437 0.971732
v 20.000000 8.204035 0.956229
v 20.000000 0.255144 -1.456750
v 10.000000 0.255144 -1.456750
v 0.000000 0.255144 -1.456750
v -10.000000 0.255144 -1.456750
v -20.000000 0.255144 -1.456750
v -20.000000 8.204035 0.956229
v -10.000000 8.222437 0.971732
v -0.000000 8.222437 0.971732
v 10.000000 8.202959 3.377967
v 20.000000 8.194299 3.374640
v 20.000000 0.255144 0.940711
v 10.000000 0.255144 0.940711
v 0.000000 0.255144 0.940711
v -10.000000 0.255144 0.940711
v -20.000000 0.255144 0.940711
v -20.000000 8.194299 3.374640
v -10.000000 8.202959 3.377967
v -0.000000 8.202959 3.377967
v 10.000000 10.621439 3.371314
v 20.000000 10.621439 3.371314
v 20.000000 0.255144 3.371314
v 10.000000 0.255144 3.371314
v 0.000000 0.255144 3.371314
v -10.000000 0.255144 3.371314
v -20.000000 0.255144 3.371314
v -20.000000 10.621439 3.371314
v -10.000000 10.621439 3.371314
v -0.000000 10.621439 3.371314
v 20.000000 3.131372 -4.310556
v 10.000000 3.131372 -4.310556
v 0.000000 3.131372 -4.310556
v -10.000000 3.131372 -4.310556
v -20.000000 3.131372 -4.310556
v -20.000000 3.121431 -1.445550
v -20.000000 3.131372 0.940711
v -20.000000 3.131372 3.371314
v -20.000000 3.131372 5.689444
v -10.000000 3.131372 5.689444
v 0.000000 3.131372 5.689444
v 10.000000 3.131372 5.689444
v 20.000000 3.131372 5.689444
v 20.000000 3.131372 3.371314
v 20.000000 3.131372 0.940711
v 20.000000 3.121431 -1.445550
v 10.000000 3.111498 -1.434350
v -0.000000 3.111498 -1.434350
v -10.000000 3.111498 -1.434350
v -20.000000 5.707338 -1.470696
v -20.000000 5.690515 3.371314
v -20.000000 5.690515 5.689444
v -10.000000 5.690515 5.689444
v -0.000000 5.690515 5.689444
v 10.000000 5.690515 5.689444
v 20.000000 5.690515 5.689444
v 20.000000 5.690515 3.371314
v 20.000000 5.707338 -1.470696
v 10.000000 5.724153 -1.484643
v -0.000000 5.724153 -1.484643
v -10.000000 5.724153 -1.484643
v -20.000000 8.185632 5.689444
v -10.000000 8.185632 5.689444
v -0.000000 8.185632 5.689444
v 10.000000 8.185632 5.689444
v 20.000000 8.185632 5.689444
vt 0.172442 0.781057
vt 0.222660 0.781057
vt 0.222481 0.828780
vt 0.172442 0.828848
vt 0.274100 0.781057
vt 0.274100 0.828848
vt 0.326861 0.781057
vt 0.326861 0.828848
vt 0.222280 0.878639
vt 0.274194 0.878667
vt 0.386159 0.781057
vt 0.386159 0.828848
vt 0.326861 0.878959
vt 0.386159 0.878959
vt 0.273753 0.928674
vt 0.327066 0.928156
vt 0.386159 0.928386
vt 0.386159 0.987222
vt 0.326861 0.987222
vt 0.172442 0.727103
vt 0.222481 0.727172
vt 0.222660 0.774895
vt 0.172442 0.774895
vt 0.274100 0.727103
vt 0.274100 0.774895
vt 0.222280 0.677313
vt 0.274194 0.677284
vt 0.326861 0.727103
vt 0.326861 0.774895
vt 0.326861 0.676993
vt 0.386159 0.727103
vt 0.386159 0.774895
vt 0.273753 0.627278
vt 0.327066 0.627796
vt 0.386159 0.676993
vt 0.386159 0.627565
vt 0.326861 0.568729
vt 0.386159 0.568729
vt 0.993513 0.508151
vt 0.993513 0.555933
vt 0.796520 0.556207
vt 0.796520 0.507872
vt 0.599525 0.556207
vt 0.599525 0.507872
vt 0.402532 0.556207
vt 0.402532 0.507872
vt 0.205538 0.555933
vt 0.205538 0.508151
vt 0.205538 0.287858
vt 0.402532 0.287858
vt 0.402532 0.344076
vt 0.205538 0.344076
vt 0.599526 0.287858
vt 0.599526 0.344076
vt 0.205538 0.391305
vt 0.402532 0.391305
vt 0.796519 0.287858
vt 0.796519 0.344076
vt 0.599526 0.391305
vt 0.205538 0.439186
vt 0.402532 0.439186
vt 0.993513 0.287858
vt 0.993513 0.344076
vt 0.796519 0.391305
vt 0.599526 0.439186
vt 0.205538 0.484852
vt 0.402532 0.484852
vt 0.993513 0.391305
vt 0.796519 0.439186
vt 0.599526 0.484852
vt 0.993513 0.439186
vt 0.796519 0.484852
vt 0.993513 0.484852
vt 0.796519 0.555588
vt 0.796519 0.508187
vt 0.993513 0.508252
vt 0.993513 0.555893
vt 0.599526 0.555588
vt 0.599526 0.508187
vt 0.402532 0.555588
vt 0.402532 0.508187
vt 0.205538 0.555893
vt 0.205538 0.508252
vt 0.796519 0.554873
vt 0.796519 0.509207
vt 0.993513 0.509207
vt 0.993513 0.554873
vt 0.599526 0.554873
vt 0.599526 0.509207
vt 0.402532 0.554873
vt 0.402532 0.509207
vt 0.205538 0.554873
vt 0.205538 0.509207
vt 0.993513 0.503931
vt 0.993513 0.560370
vt 0.796519 0.560370
vt 0.796519 0.503710
vt 0.599526 0.503710
vt 0.599526 0.560370
vt 0.402532 0.503710
vt 0.402532 0.560370
vt 0.205538 0.503931
vt 0.205538 0.560370
vt 0.205538 0.226296
vt 0.205538 0.178312
vt 0.402532 0.178312
vt 0.402532 0.226296
vt 0.205538 0.129160
vt 0.402532 0.129160
vt 0.599526 0.178312
vt 0.599526 0.226296
vt 0.205538 0.078746
vt 0.402532 0.078746
vt 0.599526 0.129160
vt 0.796519 0.178312
vt 0.796519 0.226296
vt 0.205538 0.022086
vt 0.402532 0.022086
vt 0.599526 0.078746
vt 0.796520 0.129160
vt 0.993513 0.178312
vt 0.993513 0.226296
vt 0.599526 0.022086
vt 0.796520 0.078746
vt 0.993513 0.129160
vt 0.796520 0.022086
vt 0.993513 0.078746
vt 0.993513 0.022086
vt 0.402532 0.557068
vt 0.205538 0.556979
vt 0.205538 0.507374
vt 0.402532 0.507011
vt 0.599526 0.557068
vt 0.599526 0.507011
vt 0.796519 0.507011
vt 0.796519 0.557068
vt 0.993513 0.556979
vt 0.993513 0.507374
vt 0.796519 0.555776
vt 0.796519 0.508133
vt 0.993513 0.508133
vt 0.993513 0.555946
vt 0.599526 0.555776
vt 0.599526 0.508133
vt 0.402532 0.555776
vt 0.402532 0.508133
vt 0.205538 0.555946
vt 0.205538 0.508133
vt 0.993513 0.503710
vt 0.993513 0.560370
vt 0.796519 0.560370
vt 0.796519 0.503710
vt 0.599526 0.503710
vt 0.599526 0.560370
vt 0.402532 0.503710
vt 0.402532 0.560370
vt 0.205538 0.503710
vt 0.205537 0.560370
vt 0.993513 0.506637
vt 0.993513 0.557578
vt 0.796519 0.557774
vt 0.796519 0.506306
vt 0.599526 0.506306
vt 0.599526 0.557774
vt 0.402532 0.506306
vt 0.402532 0.557774
vt 0.205538 0.506637
vt 0.205537 0.557578
vn 0.000000 0.000000 1.000000
vn 0.000000 0.000000 1.000000
vn 0.000000 0.000000 1.000000
vn 0.000000 0.000000 1.000000
vn 0.000000 0.000000 1.000000
vn 0.000000 0.000000 1.000000
vn 0.000000 0.000000 1.000000
vn 0.000000 0.000000 1.000000
vn 0.000000 0.000000 1.000000
vn 0.000000 0.000000 1.000000
vn 0.603817 0.797054 0.010479
vn 0.171584 0.673003 -0.719462
vn 0.000261 0.683157 -0.730271
vn 0.000305 0.999883 0.015293
vn 0.000000 0.683045 -0.730376
vn 0.000000 0.999848 0.017425
vn -0.000261 0.683157 -0.730271
vn -0.000305 0.999883 0.015293
vn -0.171584 0.673003 -0.719462
vn -0.603817 0.797054 0.010479
vn 0.000000 -1.000000 0.000000
vn 0.000000 -1.000000 0.000000
vn 0.000000 -1.000000 0.000000
vn 0.000000 -1.000000 0.000000
vn 0.000000 -1.000000 0.000000
vn 0.000000 -1.000000 0.000000
vn 0.000000 -1.000000 0.000000
vn 0.000000 -1.000000 0.000000
vn 0.000000 -1.000000 0.000000
vn 0.000000 -1.000000 0.000000
vn 0.000739 0.000943 -0.999999
vn 0.001482 0.000811 -0.999999
vn 0.000137 0.691753 -0.722134
vn 0.000066 0.692046 -0.721854
vn 0.000000 0.001075 -1.000000
vn 0.000000 0.690778 -0.723067
vn -0.000066 0.692046 -0.721854
vn -0.000739 0.000943 -0.999999
vn -0.001482 0.000811 -0.999999
vn -0.000137 0.691753 -0.722134
vn 0.000423 0.706950 -0.707263
vn 0.000845 0.707250 -0.706963
vn 0.000000 -1.000000 0.000000
vn 0.000000 -1.000000 0.000000
vn 0.000000 -1.000000 0.000000
vn 0.000000 -1.000000 0.000000
vn 0.000000 -1.000000 0.000000
vn -0.000845 0.707250 -0.706963
vn -0.000423 0.706950 -0.707263
vn 0.000000 0.707193 -0.707021
vn -0.000060 0.690741 -0.723102
vn -0.000120 0.690548 -0.723286
vn 0.000000 -1.000000 0.000000
vn 0.000000 -1.000000 0.000000
vn 0.000000 -1.000000 0.000000
vn 0.000000 -1.000000 0.000000
vn 0.000000 -1.000000 0.000000
vn 0.000120 0.690548 -0.723286
vn 0.000060 0.690741 -0.723102
vn 0.000000 0.690934 -0.722918
vn 0.000000 1.000000 0.000000
vn 0.000000 1.000000 0.000000
vn 1.000000 0.000000 0.000000
vn 1.000000 0.000000 0.000000
vn 1.000000 0.000000 0.000000
vn 1.000000 0.000000 0.000000
vn 0.000000 -1.000000 0.000000
vn 0.000000 -1.000000 0.000000
vn 0.000000 -1.000000 0.000000
vn 0.000000 -1.000000 0.000000
vn 0.000000 -1.000000 0.000000
vn -1.000000 0.000000 0.000000
vn -1.000000 0.000000 0.000000
vn -1.000000 0.000000 0.000000
vn -1.000000 0.000000 0.000000
vn 0.000000 1.000000 0.000000
vn 0.000000 1.000000 0.000000
vn 0.000000 1.000000 0.000000
vn 0.197782 0.694260 -0.692015
vn 0.000000 0.000000 -1.000000
vn 0.000000 0.000000 -1.000000
vn -0.000175 0.708901 -0.705307
vn 0.000000 0.709551 -0.704654
vn 0.000000 0.000000 -1.000000
vn 0.000175 0.708901 -0.705307
vn 0.000000 0.000000 -1.000000
vn -0.197782 0.694260 -0.692015
vn 0.000000 0.000000 -1.000000
vn -1.000000 0.000000 0.000000
vn -1.000000 0.000000 0.000000
vn -0.485429 0.645910 -0.589202
vn -1.000000 0.000000 0.000000
vn -1.000000 0.000000 0.000000
vn -1.000000 0.000000 0.000000
vn -1.000000 0.000000 0.000000
vn -1.000000 0.000000 0.000000
vn -1.000000 0.000000 0.000000
vn 0.000000 0.000000 1.000000
vn 0.000000 0.000000 1.000000
vn 0.000000 0.000000 1.000000
vn 0.000000 0.000000 1.000000
vn 0.000000 0.000000 1.000000
vn 0.000000 0.000000 1.000000
vn 0.000000 0.000000 1.000000
vn 0.000000 0.000000 1.000000
vn 0.000000 0.000000 1.000000
vn 0.000000 0.000000 1.000000
vn 1.000000 0.000000 0.000000
vn 1.000000 0.000000 0.000000
vn 1.000000 0.000000 0.000000
vn 1.000000 0.000000 0.000000
vn 1.000000 0.000000 0.000000
vn 1.000000 0.000000 0.000000
vn 0.485429 0.645910 -0.589203
vn 1.000000 0.000000 0.000000
vn 1.000000 0.000000 0.000000
vn -0.000140 0.737796 -0.675024
vn 0.000000 0.736848 -0.676059
vn 0.000140 0.737796 -0.675024
vn -1.000000 0.000000 0.000000
vn -1.000000 0.000000 0.000000
vn 0.000000 0.000000 1.000000
vn 0.000000 0.000000 1.000000
vn 0.000000 0.000000 1.000000
vn 0.000000 0.000000 1.000000
vn 0.000000 0.000000 1.000000
vn 1.000000 0.000000 0.000000
vn 1.000000 0.000000 0.000000
vn -1.000000 0.000000 0.000000
vn 1.000000 0.000000 0.000000
s 1
g polySurface3 polySurface2 pCube7
usemtl lambert2SG
f 1/104/1 82/105/2 83/106/3 3/107/4
f 3/107/4 83/106/3 84/110/5 5/111/6
f 5/111/6 84/110/5 85/115/7 7/116/8
f 7/116/8 85/115/7 86/121/9 9/122/10
s 2
f 11/39/11 78/40/12 79/41/13 13/42/14
f 13/42/14 79/41/13 80/43/15 15/44/16
f 15/44/16 80/43/15 81/45/17 17/46/18
f 17/46/18 81/45/17 70/47/19 19/48/20
s 3
f 20/49/21 18/50/22 26/51/23 27/52/24
f 18/50/22 16/53/25 25/54/26 26/51/23
f 16/53/25 14/57/27 24/58/28 25/54/26
f 14/57/27 12/62/29 23/63/30 24/58/28
s 4
f 17/129/31 19/130/32 28/131/33 29/132/34
f 15/133/35 17/129/31 29/132/34 30/134/36
f 21/135/37 13/136/38 15/133/35 30/134/36
f 11/137/39 13/136/38 21/135/37 22/138/40
f 21/74/37 31/75/41 32/76/42 22/77/40
s 3
f 34/64/43 24/58/28 23/63/30 33/68/44
f 35/59/45 25/54/26 24/58/28 34/64/43
f 36/56/46 26/51/23 25/54/26 35/59/45
f 37/55/47 27/52/24 26/51/23 36/56/46
s 4
f 29/80/34 28/82/33 38/83/48 39/81/49
f 30/78/36 29/80/34 39/81/49 40/79/50
f 21/74/37 30/78/36 40/79/50 31/75/41
f 31/139/41 41/140/51 42/141/52 32/142/42
s 3
f 44/69/53 34/64/43 33/68/44 43/71/54
f 45/65/55 35/59/45 34/64/43 44/69/53
f 46/61/56 36/56/46 35/59/45 45/65/55
f 47/60/57 37/55/47 36/56/46 46/61/56
s 4
f 39/145/49 38/147/48 48/148/58 49/146/59
f 40/143/50 39/145/49 49/146/59 50/144/60
f 31/139/41 40/143/50 50/144/60 41/140/51
f 41/84/51 7/85/61 9/86/62 42/87/52
s 2
f 9/1/63 86/2/64 32/3/65 42/4/66
s 3
f 8/72/67 44/69/53 43/71/54 10/73/68
f 6/70/69 45/65/55 44/69/53 8/72/67
f 4/67/70 46/61/56 45/65/55 6/70/69
f 2/66/71 47/60/57 46/61/56 4/67/70
s 2
f 48/20/72 38/21/73 82/22/74 1/23/75
s 4
f 49/90/59 48/92/58 1/93/76 3/91/77
f 50/88/60 49/90/59 3/91/77 5/89/78
f 41/84/51 50/88/60 5/89/78 7/85/61
s 2
f 51/149/79 12/150/80 14/151/81 52/152/82
f 53/153/83 52/152/82 14/151/81 16/154/84
f 54/155/85 53/153/83 16/154/84 18/156/86
f 55/157/87 54/155/85 18/156/86 20/158/88
f 55/37/87 20/38/89 27/36/90 56/34/91
f 57/30/92 56/34/91 27/36/90 37/35/93
f 58/28/94 57/30/92 37/35/93 47/31/95
f 59/29/96 58/28/94 47/31/95 2/32/97
s 1
f 60/113/98 59/112/99 2/117/100 4/118/101
f 61/119/102 60/113/98 4/118/101 6/123/103
f 62/124/104 61/119/102 6/123/103 8/126/105
f 63/127/106 62/124/104 8/126/105 10/128/107
s 2
f 64/8/108 63/7/109 10/11/110 43/12/111
f 65/13/112 64/8/108 43/12/111 33/14/113
f 66/16/114 65/13/112 33/14/113 23/17/115
f 23/17/115 12/18/116 51/19/79 66/16/114
f 66/94/114 51/95/79 52/96/82 67/97/117
f 68/98/118 67/97/117 52/96/82 53/99/83
f 69/100/119 68/98/118 53/99/83 54/101/85
f 56/102/91 69/100/119 54/101/85 55/103/87
f 19/27/20 70/33/19 56/34/91 57/30/92
f 71/24/120 19/27/20 57/30/92 58/28/94
f 72/25/121 71/24/120 58/28/94 59/29/96
s 1
f 73/109/122 72/108/123 59/112/99 60/113/98
f 74/114/124 73/109/122 60/113/98 61/119/102
f 75/120/125 74/114/124 61/119/102 62/124/104
f 76/125/126 75/120/125 62/124/104 63/127/106
s 2
f 77/6/127 76/5/128 63/7/109 64/8/108
f 11/10/11 77/6/127 64/8/108 65/13/112
f 78/15/12 11/10/11 65/13/112 66/16/114
f 78/159/12 66/160/114 67/161/117 79/162/13
f 80/163/15 79/162/13 67/161/117 68/164/118
f 81/165/17 80/163/15 68/164/118 69/166/119
f 70/167/19 81/165/17 69/166/119 56/168/91
f 38/21/73 28/26/129 19/27/20 71/24/120
f 82/22/74 38/21/73 71/24/120 72/25/121
s 1
f 83/106/3 82/105/2 72/108/123 73/109/122
f 84/110/5 83/106/3 73/109/122 74/114/124
f 85/115/7 84/110/5 74/114/124 75/120/125
f 86/121/9 85/115/7 75/120/125 76/125/126
s 2
f 32/3/65 86/2/64 76/5/128 77/6/127
f 22/9/130 32/3/65 77/6/127 11/10/11
