# This file uses centimeters as units for non-parametric coordinates.

mtllib FullTree.mtl
g default
v 1.401708 0.515541 -1.308766
v 0.218218 0.515541 -1.798983
v -0.965272 0.515541 -1.308766
v -1.455491 0.515541 -0.125273
v -0.965272 0.515541 1.058218
v 0.218218 0.515541 1.548435
v 1.401708 0.515541 1.058218
v 1.891926 0.515541 -0.125273
v 2.585200 0.515541 -2.492259
v 0.218218 0.515541 -3.472693
v -2.148764 0.515541 -2.492259
v -3.129203 0.515541 -0.125273
v -2.148764 0.515541 2.241709
v 0.218218 0.515541 3.222144
v 2.585200 0.515541 2.241709
v 3.565637 0.515541 -0.125273
v 2.585199 10.306462 -2.492257
v 0.218216 10.306462 -3.472692
v -2.148765 10.306462 -2.492257
v -3.129205 10.306462 -0.125273
v -2.148765 10.306468 2.241711
v 0.218216 10.306468 3.222146
v 2.585199 10.306462 2.241711
v 3.565636 10.306462 -0.125273
v 0.218218 0.515541 -0.125273
v 9.764569 10.306465 -9.764570
v -0.000001 10.306465 -13.809189
v -9.764570 10.306465 -9.764570
v -13.809189 10.306465 0.000000
v -9.764570 10.306465 9.764570
v -0.000000 10.306465 13.809189
v 9.764571 10.306465 9.764571
v 13.809191 10.306465 0.000000
v 9.764569 15.165340 -9.764570
v -0.000001 15.165340 -13.809189
v -9.764570 15.165340 -9.764570
v -13.809189 15.165340 0.000000
v -9.764570 15.165340 9.764570
v -0.000000 15.165340 13.809189
v 9.764571 15.165340 9.764571
v 13.809191 15.165340 0.000000
v 7.071066 15.165340 -7.071067
v 0.000000 15.165340 -9.999998
v -7.071067 15.165340 -7.071067
v -9.999998 15.165340 0.000000
v -7.071067 15.165340 7.071067
v -0.000000 15.165340 9.999998
v 7.071067 15.165340 7.071068
v 10.000001 15.165340 0.000000
v 7.071066 19.717144 -7.071067
v -0.000000 19.717144 -9.999998
v -7.071067 19.717144 -7.071066
v -9.999998 19.717144 0.000000
v -7.071067 19.717144 7.071067
v -0.000000 19.717144 9.999998
v 7.071067 19.717144 7.071069
v 10.000001 19.717144 0.000000
v 5.354980 19.717144 -5.354980
v 0.000000 19.717144 -7.573085
v -5.354980 19.717144 -5.354980
v -7.573085 19.717144 0.000000
v -5.354980 19.717144 5.354980
v 0.000000 19.717144 7.573085
v 5.354980 19.717144 5.354981
v 7.573087 19.717144 0.000000
v 5.354980 23.243080 -5.354980
v 0.000000 23.243080 -7.573085
v -5.354980 23.243080 -5.354980
v -7.573085 23.243080 -0.000000
v -5.354980 23.243080 5.354980
v 0.000000 23.243080 7.573085
v 5.354980 23.243080 5.354981
v 7.573087 23.243080 0.000001
v 2.646574 23.243080 -2.646573
v 0.000001 23.243080 -3.742820
v -2.646573 23.243080 -2.646573
v -3.742819 23.243080 -0.000000
v -2.646573 23.243080 2.646573
v 0.000001 23.243080 3.742820
v 2.646574 23.243080 2.646574
v 3.742821 23.243080 0.000000
v 2.646574 27.038902 -2.646574
v 0.000001 27.038902 -3.742821
v 0.000000 27.038902 -2.388461
v 1.688897 27.038902 -1.688897
v -2.646574 27.038904 -2.646573
v -1.688897 27.038910 -1.688896
v -3.742820 27.038904 0.000000
v -2.388460 27.038910 0.000000
v -2.646574 27.038904 2.646574
v -1.688897 27.038910 1.688897
v 0.000001 27.038904 3.742821
v 0.000000 27.038910 2.388461
v 2.646575 27.038904 2.646575
v 1.688897 27.038910 1.688897
v 3.742822 27.038904 0.000000
v 2.388462 27.038910 0.000000
v 0.000000 27.038910 0.000000
vt 1.239121 0.000000
vt 1.684063 1.109179
vt 1.568010 1.109179
vt 0.702312 0.000000
vt 0.821210 1.109179
vt 0.972703 0.000000
vt 0.949531 1.109179
vt 0.264642 0.000000
vt 1.082129 1.109179
vt 0.544597 0.000000
vt 1.212421 1.109179
vt 0.794193 0.000000
vt 1.335972 1.109179
vt 1.021078 0.000000
vt 1.453362 1.109179
vt 0.313274 1.271556
vt 0.563274 1.271556
vt 0.813274 1.271556
vt 1.063274 1.271556
vt 1.313274 1.271556
vt 1.563274 1.271556
vt 1.813274 1.271556
vt 1.165915 0.000000
vt 0.313274 1.108404
vt 2.063274 1.108404
vt 0.563274 1.108404
vt 0.813274 1.108404
vt 1.063274 1.108404
vt 1.313274 1.108404
vt 1.563274 1.108404
vt 1.813274 1.108404
vt 0.313274 1.114192
vt 2.063274 1.114192
vt 0.563274 1.114192
vt 0.813274 1.114192
vt 1.063274 1.114192
vt 1.313274 1.114192
vt 1.563274 1.114192
vt 1.813274 1.114192
vt 0.313274 1.133531
vt 2.063274 1.133531
vt 0.563274 1.133531
vt 0.813274 1.133531
vt 1.063274 1.133531
vt 1.313274 1.133531
vt 1.563274 1.133531
vt 1.813274 1.133531
vt 0.313274 1.128444
vt 2.063274 1.128444
vt 0.563274 1.128444
vt 0.813274 1.128444
vt 1.063274 1.128444
vt 1.313274 1.128444
vt 1.563274 1.128444
vt 1.813274 1.128444
vt 0.726516 0.000000
vt 2.313274 1.271556
vt 1.461608 0.000000
vt 1.805337 1.290821
vt 2.313274 1.291596
vt 2.313274 1.285807
vt 2.313274 1.266468
vt 2.063274 1.271556
vt 0.728890 0.403962
vt 0.728890 0.593510
vt 0.646096 0.559215
vt 0.646096 0.438257
vt 0.594860 0.727540
vt 0.560565 0.644746
vt 0.500086 0.498736
vt 0.594860 0.269932
vt 0.560565 0.352726
vt 0.405312 0.727540
vt 0.439607 0.644746
vt 0.405312 0.269932
vt 0.439607 0.352726
vt 0.271282 0.593510
vt 0.354076 0.559215
vt 0.271282 0.403962
vt 0.354076 0.438256
vt 2.313274 1.128444
vt 1.813274 1.266468
vt 2.063274 1.266468
vt 1.563274 1.266468
vt 1.313274 1.266468
vt 1.063274 1.266468
vt 0.813274 1.266468
vt 0.563274 1.266468
vt 0.313274 1.266468
vt 2.313274 1.133531
vt 1.813274 1.285807
vt 2.063274 1.285807
vt 1.563274 1.285807
vt 1.313274 1.285807
vt 1.063274 1.285807
vt 0.813274 1.285807
vt 0.563274 1.285807
vt 0.313274 1.285807
vt 2.313274 1.114192
vt 1.813274 1.291596
vt 2.063274 1.291596
vt 1.563274 1.291596
vt 1.313274 1.291596
vt 1.063274 1.291596
vt 0.813274 1.291596
vt 0.563274 1.291596
vt 0.313274 1.291596
vt 2.313274 1.108404
vt 1.453362 1.290821
vt 1.568010 1.290821
vt 1.335972 1.290821
vt 1.212421 1.290821
vt 1.082129 1.290821
vt 0.949531 1.290821
vt 0.821210 1.290821
vt 1.684064 1.290821
vt 1.011210 0.000000
vt 1.244206 0.000000
vt 0.772645 0.000000
vt 0.521556 0.000000
vt 0.256769 0.000000
vt -0.012704 0.000000
vt 1.805337 1.109179
vt 1.480056 0.000000
vt 0.728890 0.403962
vt 0.728890 0.593510
vt 0.613167 0.545575
vt 0.613167 0.451896
vt 0.594860 0.727540
vt 0.546926 0.611817
vt 0.594860 0.269932
vt 0.546926 0.385655
vt 0.405312 0.727540
vt 0.453246 0.611817
vt 0.405312 0.269932
vt 0.453246 0.385655
vt 0.271282 0.593509
vt 0.387005 0.545575
vt 0.271282 0.403962
vt 0.387005 0.451896
vt 0.728890 0.403962
vt 0.728890 0.593509
vt 0.673361 0.570509
vt 0.673361 0.426963
vt 0.594860 0.727540
vt 0.571859 0.672011
vt 0.594860 0.269932
vt 0.571859 0.325461
vt 0.405312 0.727540
vt 0.428313 0.672011
vt 0.405312 0.269932
vt 0.428313 0.325460
vt 0.271282 0.593509
vt 0.326811 0.570509
vt 0.271282 0.403962
vt 0.326811 0.426963
vt 0.594860 0.727540
vt 0.405312 0.727540
vt 0.431455 0.664425
vt 0.568717 0.664425
vt 0.271282 0.593509
vt 0.334396 0.567367
vt 0.728890 0.593509
vt 0.665776 0.567367
vt 0.271282 0.403962
vt 0.334396 0.430105
vt 0.728890 0.403962
vt 0.665776 0.430105
vt 0.405312 0.269932
vt 0.431455 0.333046
vt 0.594860 0.269932
vt 0.568717 0.333046
vt 0.559293 0.521964
vt 0.559293 0.476017
vt 0.729060 0.401461
vt 0.729060 0.591008
vt 0.526803 0.443527
vt 0.595030 0.267431
vt 0.526803 0.554454
vt 0.595030 0.725039
vt 0.480856 0.443527
vt 0.405482 0.267430
vt 0.480856 0.554454
vt 0.405482 0.725039
vt 0.448366 0.476017
vt 0.271452 0.401461
vt 0.448366 0.521964
vt 0.271452 0.591008
vn 0.000000 -1.000000 0.000000
vn 0.000000 -1.000000 -0.000000
vn 0.000000 -1.000000 -0.000000
vn 0.000000 -1.000000 -0.000000
vn 0.000000 -1.000000 -0.000000
vn 0.000000 -1.000000 -0.000000
vn 0.000000 -1.000000 0.000000
vn 0.000000 -1.000000 -0.000000
vn 0.000000 -1.000000 0.000000
vn 0.000000 -1.000000 0.000000
vn 0.000000 -1.000000 0.000000
vn 0.000000 -1.000000 0.000000
vn 0.000000 -1.000000 0.000000
vn 0.000000 -1.000000 0.000000
vn 0.000000 -1.000000 0.000000
vn 0.000000 -1.000000 0.000000
vn 0.382683 0.000000 -0.923880
vn 0.382683 0.000000 -0.923880
vn 0.382683 0.000000 -0.923880
vn 0.382683 0.000000 -0.923880
vn -0.382683 0.000000 -0.923880
vn -0.382683 0.000000 -0.923880
vn -0.382683 0.000000 -0.923880
vn -0.382683 0.000000 -0.923880
vn -0.923879 -0.000000 -0.382684
vn -0.923879 -0.000000 -0.382684
vn -0.923879 -0.000000 -0.382684
vn -0.923879 -0.000000 -0.382684
vn -0.923879 -0.000000 0.382684
vn -0.923879 -0.000000 0.382685
vn -0.923879 -0.000000 0.382684
vn -0.923879 -0.000000 0.382684
vn -0.382683 -0.000000 0.923880
vn -0.382683 -0.000000 0.923880
vn -0.382683 -0.000000 0.923880
vn -0.382683 -0.000000 0.923880
vn 0.382683 -0.000000 0.923880
vn 0.382683 -0.000000 0.923880
vn 0.382683 -0.000000 0.923880
vn 0.382683 -0.000000 0.923880
vn 0.923880 0.000000 0.382683
vn 0.923880 0.000000 0.382684
vn 0.923880 0.000000 0.382684
vn 0.923880 0.000000 0.382684
vn 0.923880 0.000000 -0.382683
vn 0.923880 0.000000 -0.382683
vn 0.923880 0.000000 -0.382683
vn 0.923880 0.000000 -0.382683
vn 0.000001 1.000000 -0.000002
vn 0.000001 1.000000 -0.000003
vn 0.000001 1.000000 -0.000003
vn 0.000001 1.000000 -0.000002
vn -0.000002 1.000000 -0.000003
vn -0.000001 1.000000 -0.000003
vn -0.000004 1.000000 -0.000001
vn -0.000003 1.000000 -0.000001
vn -0.000003 1.000000 0.000001
vn -0.000002 1.000000 0.000000
vn -0.000000 1.000000 0.000003
vn -0.000000 1.000000 0.000002
vn 0.000003 1.000000 0.000004
vn 0.000002 1.000000 0.000003
vn 0.000003 1.000000 0.000000
vn 0.000002 1.000000 -0.000001
vn 0.000000 -1.000000 0.000000
vn 0.000001 1.000000 -0.000002
vn 0.000000 -1.000000 -0.000000
vn 0.000000 -1.000000 -0.000000
vn -0.000000 -1.000000 -0.000000
vn 0.000000 -1.000000 -0.000000
vn -0.000000 -1.000000 -0.000000
vn -0.000000 -1.000000 -0.000000
vn -0.000000 -1.000000 0.000000
vn -0.000000 -1.000000 0.000000
vn 0.000000 -1.000000 0.000000
vn 0.000000 -1.000000 0.000000
vn -0.000000 -1.000000 -0.000000
vn -0.000000 -1.000000 -0.000000
vn -0.000000 -1.000000 0.000000
vn -0.000000 -1.000000 0.000000
vn 0.000000 -1.000000 0.000000
vn 0.000000 -1.000000 0.000000
vn 0.382684 0.000000 -0.923880
vn 0.382684 0.000000 -0.923880
vn 0.382684 0.000000 -0.923880
vn 0.382684 0.000000 -0.923880
vn -0.382684 0.000000 -0.923880
vn -0.382684 0.000000 -0.923880
vn -0.382684 0.000000 -0.923880
vn -0.382684 0.000000 -0.923880
vn -0.923880 0.000000 -0.382683
vn -0.923880 0.000000 -0.382683
vn -0.923880 0.000000 -0.382683
vn -0.923880 0.000000 -0.382683
vn -0.923880 0.000000 0.382683
vn -0.923880 0.000000 0.382683
vn -0.923880 0.000000 0.382683
vn -0.923880 0.000000 0.382683
vn -0.382684 0.000000 0.923880
vn -0.382684 0.000000 0.923880
vn -0.382684 0.000000 0.923880
vn -0.382684 0.000000 0.923880
vn 0.382683 0.000000 0.923880
vn 0.382683 0.000000 0.923880
vn 0.382683 0.000000 0.923880
vn 0.382683 0.000000 0.923880
vn 0.923880 0.000000 0.382684
vn 0.923880 0.000000 0.382684
vn 0.923880 0.000000 0.382684
vn 0.923880 0.000000 0.382684
vn 0.923879 0.000000 -0.382684
vn 0.923879 0.000000 -0.382684
vn 0.923879 0.000000 -0.382684
vn 0.923879 0.000000 -0.382684
vn 0.000000 1.000000 0.000000
vn 0.000000 1.000000 -0.000000
vn 0.000000 1.000000 -0.000000
vn 0.000000 1.000000 0.000000
vn 0.000000 1.000000 -0.000000
vn 0.000000 1.000000 -0.000000
vn 0.000000 1.000000 0.000000
vn 0.000000 1.000000 0.000000
vn 0.000000 1.000000 -0.000000
vn 0.000000 1.000000 -0.000000
vn 0.000000 1.000000 -0.000000
vn 0.000000 1.000000 -0.000000
vn 0.000000 1.000000 -0.000000
vn 0.000000 1.000000 -0.000000
vn 0.000000 1.000000 -0.000000
vn 0.000000 1.000000 0.000000
vn 0.382683 0.000000 -0.923880
vn 0.382683 0.000000 -0.923880
vn 0.382683 0.000000 -0.923880
vn 0.382683 0.000000 -0.923880
vn -0.382683 0.000000 -0.923880
vn -0.382683 0.000000 -0.923880
vn -0.382683 0.000000 -0.923880
vn -0.382683 0.000000 -0.923880
vn -0.923880 0.000000 -0.382683
vn -0.923880 0.000000 -0.382683
vn -0.923880 0.000000 -0.382683
vn -0.923880 0.000000 -0.382683
vn -0.923880 0.000000 0.382683
vn -0.923880 0.000000 0.382683
vn -0.923880 0.000000 0.382683
vn -0.923880 0.000000 0.382683
vn -0.382683 0.000000 0.923880
vn -0.382683 0.000000 0.923880
vn -0.382683 0.000000 0.923880
vn -0.382683 0.000000 0.923880
vn 0.382683 -0.000000 0.923880
vn 0.382683 -0.000000 0.923880
vn 0.382683 -0.000000 0.923880
vn 0.382683 -0.000000 0.923880
vn 0.923879 -0.000000 0.382684
vn 0.923880 -0.000000 0.382684
vn 0.923880 -0.000000 0.382684
vn 0.923879 -0.000000 0.382684
vn 0.923879 -0.000000 -0.382684
vn 0.923879 -0.000000 -0.382684
vn 0.923879 -0.000000 -0.382684
vn 0.923879 -0.000000 -0.382684
vn 0.000000 1.000000 0.000000
vn 0.000000 1.000000 0.000000
vn 0.000000 1.000000 0.000000
vn 0.000000 1.000000 -0.000000
vn 0.000000 1.000000 0.000000
vn 0.000000 1.000000 0.000000
vn 0.000000 1.000000 0.000000
vn 0.000000 1.000000 0.000000
vn 0.000000 1.000000 -0.000000
vn 0.000000 1.000000 -0.000000
vn 0.000000 1.000000 0.000000
vn 0.000000 1.000000 0.000000
vn 0.000000 1.000000 0.000001
vn 0.000000 1.000000 0.000001
vn 0.000000 1.000000 0.000000
vn 0.000000 1.000000 0.000000
vn 0.382683 0.000000 -0.923880
vn 0.382683 0.000000 -0.923880
vn 0.382683 0.000000 -0.923880
vn 0.382683 0.000000 -0.923880
vn -0.382683 0.000000 -0.923880
vn -0.382683 0.000000 -0.923880
vn -0.382683 0.000000 -0.923880
vn -0.382683 0.000000 -0.923880
vn -0.923880 0.000000 -0.382683
vn -0.923880 0.000000 -0.382683
vn -0.923880 0.000000 -0.382683
vn -0.923880 0.000000 -0.382683
vn -0.923880 0.000000 0.382683
vn -0.923880 0.000000 0.382683
vn -0.923880 0.000000 0.382683
vn -0.923880 0.000000 0.382683
vn -0.382683 0.000000 0.923880
vn -0.382683 0.000000 0.923880
vn -0.382683 0.000000 0.923880
vn -0.382683 0.000000 0.923880
vn 0.382683 0.000000 0.923880
vn 0.382683 0.000000 0.923880
vn 0.382683 0.000000 0.923880
vn 0.382683 0.000000 0.923880
vn 0.923880 0.000000 0.382683
vn 0.923880 0.000000 0.382683
vn 0.923880 0.000000 0.382683
vn 0.923880 0.000000 0.382683
vn 0.923880 0.000000 -0.382684
vn 0.923880 0.000000 -0.382684
vn 0.923880 0.000000 -0.382684
vn 0.923879 0.000000 -0.382684
vn 0.000000 1.000000 0.000000
vn 0.000000 1.000000 -0.000000
vn 0.000000 1.000000 -0.000000
vn 0.000000 1.000000 0.000000
vn 0.000000 1.000000 -0.000000
vn 0.000000 1.000000 -0.000000
vn 0.000000 1.000000 0.000000
vn 0.000000 1.000000 0.000000
vn 0.000000 1.000000 0.000000
vn 0.000000 1.000000 0.000000
vn 0.000000 1.000000 0.000000
vn 0.000000 1.000000 0.000000
vn 0.000000 1.000000 -0.000000
vn 0.000000 1.000000 -0.000000
vn 0.000000 1.000000 0.000000
vn 0.000000 1.000000 0.000000
vn 0.382683 -0.000000 -0.923880
vn 0.382683 -0.000000 -0.923880
vn 0.382683 -0.000000 -0.923880
vn 0.382683 -0.000000 -0.923880
vn -0.382684 -0.000000 -0.923880
vn -0.382684 -0.000000 -0.923880
vn -0.382684 -0.000000 -0.923879
vn -0.382684 -0.000000 -0.923879
vn -0.923880 -0.000000 -0.382683
vn -0.923880 -0.000000 -0.382683
vn -0.923880 -0.000000 -0.382683
vn -0.923880 -0.000000 -0.382683
vn -0.923880 -0.000000 0.382683
vn -0.923880 -0.000000 0.382683
vn -0.923880 -0.000000 0.382683
vn -0.923880 -0.000000 0.382683
vn -0.382683 -0.000000 0.923880
vn -0.382683 -0.000000 0.923880
vn -0.382683 -0.000000 0.923880
vn -0.382683 -0.000000 0.923880
vn 0.382683 -0.000000 0.923880
vn 0.382683 -0.000000 0.923880
vn 0.382683 -0.000000 0.923880
vn 0.382683 -0.000000 0.923880
vn 0.923880 -0.000000 0.382683
vn 0.923880 -0.000000 0.382683
vn 0.923880 -0.000000 0.382683
vn 0.923880 -0.000000 0.382683
vn 0.923880 -0.000000 -0.382683
vn 0.923880 -0.000000 -0.382683
vn 0.923880 -0.000000 -0.382683
vn 0.923880 -0.000000 -0.382684
s 1
g pCylinder1
usemtl lambert3SG
f 1/1/1 2/58/2 10/124/3 9/118/4
f 2/58/2 3/4/5 11/56/6 10/124/3
f 3/4/5 4/6/7 12/122/8 11/56/6
f 4/6/7 5/8/9 13/121/10 12/122/8
f 5/8/9 6/10/11 14/120/12 13/121/10
f 6/10/11 7/12/13 15/119/14 14/120/12
f 7/12/13 8/14/15 16/117/16 15/119/14
f 8/14/15 1/1/1 9/118/4 16/117/16
s off
f 10/2/17 18/116/18 17/110/19 9/3/20
f 11/123/21 19/59/22 18/116/23 10/2/24
f 12/7/25 20/114/26 19/115/27 11/5/28
f 13/9/29 21/113/30 20/114/31 12/7/32
f 14/11/33 22/112/34 21/113/35 13/9/36
f 15/13/37 23/111/38 22/112/39 14/11/40
f 16/15/41 24/109/42 23/111/43 15/13/44
f 9/3/45 17/110/46 24/109/47 16/15/48
s 2
usemtl lambert2SG
f 82/64/49 83/65/50 84/66/51 85/67/52
f 83/65/50 86/68/53 87/69/54 84/66/51
f 86/68/53 88/73/55 89/74/56 87/69/54
f 88/73/55 90/77/57 91/78/58 89/74/56
f 90/77/57 92/79/59 93/80/60 91/78/58
f 92/79/59 94/75/61 95/76/62 93/80/60
f 94/75/61 96/71/63 97/72/64 95/76/62
f 96/71/63 82/64/49 85/67/52 97/72/64
s 1
usemtl lambert3SG
f 2/58/2 1/1/1 25/23/65
f 3/4/5 2/58/2 25/23/65
f 4/6/7 3/4/5 25/23/65
f 5/8/9 4/6/7 25/23/65
f 6/10/11 5/8/9 25/23/65
f 7/12/13 6/10/11 25/23/65
f 8/14/15 7/12/13 25/23/65
f 1/1/1 8/14/15 25/23/65
s 2
usemtl lambert2SG
f 85/67/52 84/66/51 98/70/66
f 84/66/51 87/69/54 98/70/66
f 87/69/54 89/74/56 98/70/66
f 89/74/56 91/78/58 98/70/66
f 91/78/58 93/80/60 98/70/66
f 93/80/60 95/76/62 98/70/66
f 95/76/62 97/72/64 98/70/66
f 97/72/64 85/67/52 98/70/66
s 3
f 17/173/67 18/174/68 27/175/69 26/176/70
f 18/174/68 19/177/71 28/178/72 27/175/69
f 19/177/71 20/181/73 29/182/74 28/178/72
f 20/181/73 21/185/75 30/186/76 29/182/74
f 21/185/75 22/187/77 31/188/78 30/186/76
f 22/187/77 23/183/79 32/184/80 31/188/78
f 23/183/79 24/179/81 33/180/82 32/184/80
f 24/179/81 17/173/67 26/176/70 33/180/82
s off
f 26/25/83 27/108/84 35/60/85 34/101/86
f 27/24/87 28/26/88 36/106/89 35/107/90
f 28/26/91 29/27/92 37/105/93 36/106/94
f 29/27/95 30/28/96 38/104/97 37/105/98
f 30/28/99 31/29/100 39/103/101 38/104/102
f 31/29/103 32/30/104 40/102/105 39/103/106
f 32/30/107 33/31/108 41/100/109 40/102/110
f 33/31/111 26/25/112 34/101/113 41/100/114
s 4
f 34/157/115 35/158/116 43/159/117 42/160/118
f 35/158/116 36/161/119 44/162/120 43/159/117
f 36/161/119 37/165/121 45/166/122 44/162/120
f 37/165/121 38/169/123 46/170/124 45/166/122
f 38/169/123 39/171/125 47/172/126 46/170/124
f 39/171/125 40/167/127 48/168/128 47/172/126
f 40/167/127 41/163/129 49/164/130 48/168/128
f 41/163/129 34/157/115 42/160/118 49/164/130
s off
f 42/33/131 43/99/132 51/61/133 50/92/134
f 43/32/135 44/34/136 52/97/137 51/98/138
f 44/34/139 45/35/140 53/96/141 52/97/142
f 45/35/143 46/36/144 54/95/145 53/96/146
f 46/36/147 47/37/148 55/94/149 54/95/150
f 47/37/151 48/38/152 56/93/153 55/94/154
f 48/38/155 49/39/156 57/91/157 56/93/158
f 49/39/159 42/33/160 50/92/161 57/91/162
s 5
f 50/141/163 51/142/164 59/143/165 58/144/166
f 51/142/164 52/145/167 60/146/168 59/143/165
f 52/145/167 53/149/169 61/150/170 60/146/168
f 53/149/169 54/153/171 62/154/172 61/150/170
f 54/153/171 55/155/173 63/156/174 62/154/172
f 55/155/173 56/151/175 64/152/176 63/156/174
f 56/151/175 57/147/177 65/148/178 64/152/176
f 57/147/177 50/141/163 58/144/166 65/148/178
s off
f 58/41/179 59/90/180 67/62/181 66/83/182
f 59/40/183 60/42/184 68/88/185 67/89/186
f 60/42/187 61/43/188 69/87/189 68/88/190
f 61/43/191 62/44/192 70/86/193 69/87/194
f 62/44/195 63/45/196 71/85/197 70/86/198
f 63/45/199 64/46/200 72/84/201 71/85/202
f 64/46/203 65/47/204 73/82/205 72/84/206
f 65/47/207 58/41/208 66/83/209 73/82/210
s 6
f 66/125/211 67/126/212 75/127/213 74/128/214
f 67/126/212 68/129/215 76/130/216 75/127/213
f 68/129/215 69/133/217 77/134/218 76/130/216
f 69/133/217 70/137/219 78/138/220 77/134/218
f 70/137/219 71/139/221 79/140/222 78/138/220
f 71/139/221 72/135/223 80/136/224 79/140/222
f 72/135/223 73/131/225 81/132/226 80/136/224
f 73/131/225 66/125/211 74/128/214 81/132/226
s off
f 74/49/227 75/81/228 83/57/229 82/63/230
f 75/48/231 76/50/232 86/17/233 83/16/234
f 76/50/235 77/51/236 88/18/237 86/17/238
f 77/51/239 78/52/240 90/19/241 88/18/242
f 78/52/243 79/53/244 92/20/245 90/19/246
f 79/53/247 80/54/248 94/21/249 92/20/250
f 80/54/251 81/55/252 96/22/253 94/21/254
f 81/55/255 74/49/256 82/63/257 96/22/258
